<svg id="icon-slider-1" xmlns="http://www.w3.org/2000/svg" width="106" height="106" viewBox="0 0 106 106">
  <path id="Trazado_29356" data-name="Trazado 29356" d="M77.374,14.182a18.487,18.487,0,0,0-16.06,23.467,7.5,7.5,0,0,1-.343,5.105L58.377,48.6l7.38-.743a7.258,7.258,0,0,1,4.3.863,18.38,18.38,0,0,0,10.612,2.315,18.5,18.5,0,1,0-3.3-36.856Z" transform="translate(0 0)" fill="none" stroke="#001b66" stroke-width="4"/>
  <g id="Grupo_21161" data-name="Grupo 21161" transform="translate(73.801 22.127)">
    <path id="Trazado_29357" data-name="Trazado 29357" d="M73.8,26.18a5.342,5.342,0,0,1,5.424-4.053,5.034,5.034,0,0,1,4.944,3.847c.552,2.514-.851,4.963-2.475,6.615-1.795,1.826-3.406,3.681-3.406,6.357" transform="translate(-73.801 -22.127)" fill="none" stroke="#001b66" stroke-width="4"/>
    <line id="Línea_4042" data-name="Línea 4042" transform="translate(4.577 21.106)" fill="none" stroke="#001b66" stroke-linecap="round" stroke-linejoin="round" stroke-width="4"/>
  </g>
  <g id="Grupo_21165" data-name="Grupo 21165">
    <g id="Grupo_21164" data-name="Grupo 21164" transform="translate(8.688 16.28)">
      <path id="Trazado_29358" data-name="Trazado 29358" d="M49.472,25.963h-.007a16.284,16.284,0,0,1-21.738-6.169,13.247,13.247,0,0,1,21.745,6.169Z" transform="translate(-8.688 -16.28)" fill="#02d1a3"/>
      <line id="Línea_4043" data-name="Línea 4043" y2="15.226" transform="translate(56.051 57.625)" fill="none" stroke="#001b66" stroke-width="4"/>
      <path id="Trazado_29359" data-name="Trazado 29359" d="M64.739,70.375h0A13.393,13.393,0,0,0,51.346,56.982h0" transform="translate(-8.688 -16.28)" fill="none" stroke="#21d1a3" stroke-width="5.5"/>
      <rect id="Rectángulo_6381" data-name="Rectángulo 6381" width="26.498" height="33.633" rx="13.249" transform="translate(14.777 0.002)" fill="none" stroke="#001b66" stroke-width="4"/>
      <path id="Trazado_29360" data-name="Trazado 29360" d="M8.688,89.131V71.4A14.423,14.423,0,0,1,23.112,56.982h3.815a3.4,3.4,0,0,0,3.4-3.4V48.27" transform="translate(-8.688 -16.28)" fill="none" stroke="#001b66" stroke-width="4"/>
      <path id="Trazado_29361" data-name="Trazado 29361" d="M43.1,48.27V53.6a3.383,3.383,0,0,0,3.383,3.383h1.947" transform="translate(-8.688 -16.28)" fill="none" stroke="#001b66" stroke-width="4"/>
      <path id="Trazado_29362" data-name="Trazado 29362" d="M43.1,50.63v6.389a6.389,6.389,0,0,1-6.389,6.389h0a6.388,6.388,0,0,1-6.389-6.389V50.63" transform="translate(-8.688 -16.28)" fill="none" stroke="#001b66" stroke-width="4"/>
      <path id="Trazado_29363" data-name="Trazado 29363" d="M27.725,19.794a16.286,16.286,0,0,0,21.738,6.171" transform="translate(-8.688 -16.28)" fill="none" stroke="#001b66" stroke-width="4"/>
      <g id="Grupo_21162" data-name="Grupo 21162" transform="translate(14.774 59.815)">
        <line id="Línea_4044" data-name="Línea 4044" y1="13.029" fill="none" stroke="#001b66" stroke-width="4"/>
        <line id="Línea_4045" data-name="Línea 4045" y1="4.347" fill="none" stroke="#001b66" stroke-linecap="round" stroke-linejoin="round" stroke-width="4"/>
      </g>
      <g id="Grupo_21163" data-name="Grupo 21163" transform="translate(41.278 59.815)">
        <line id="Línea_4046" data-name="Línea 4046" y1="13.029" fill="none" stroke="#001b66" stroke-width="4"/>
        <line id="Línea_4047" data-name="Línea 4047" y1="4.347" fill="none" stroke="#001b66" stroke-linecap="round" stroke-linejoin="round" stroke-width="4"/>
      </g>
    </g>
    <rect id="Rectángulo_6382" data-name="Rectángulo 6382" width="106" height="106" fill="none"/>
  </g>
</svg>
